<svg xmlns="http://www.w3.org/2000/svg" viewBox="0 0 64 64" role="img" aria-label="Discord icon">
  <path fill="#fff" d="M49.9 18.2A42.3 42.3 0 0 0 39.4 15l-.5 1c3.6.9 5.3 2.1 5.3 2.1a32.5 32.5 0 0 0-24.4 0s1.7-1.2 5.3-2.1l-.5-1a42.3 42.3 0 0 0-10.5 3.2C7.4 28.3 5.8 38.2 6.7 48a43 43 0 0 0 12.9 6.5l1.6-2.7a26 26 0 0 1-4.1-2c.3-.2.6-.4.9-.7a30.5 30.5 0 0 0 28 0l.9.7a26 26 0 0 1-4.1 2l1.6 2.7A43 43 0 0 0 57.3 48c1-10.9-1.7-20.7-7.4-29.8zM24.8 42.2c-2.5 0-4.5-2.3-4.5-5.1s2-5.1 4.5-5.1 4.6 2.3 4.5 5.1c0 2.8-2 5.1-4.5 5.1zm14.4 0c-2.5 0-4.5-2.3-4.5-5.1s2-5.1 4.5-5.1 4.6 2.3 4.5 5.1c0 2.8-2 5.1-4.5 5.1z"/>
</svg>
