<svg xmlns="http://www.w3.org/2000/svg" viewBox="0 0 64 64" role="img" aria-label="Instagram icon">
  <path fill="#fff" d="M32 8c6.5 0 7.3 0 9.9.1 2.6.1 4.4.5 5.9 1.1a12 12 0 0 1 4.3 2.8 12 12 0 0 1 2.8 4.3c.6 1.5 1 3.3 1.1 5.9.1 2.6.1 3.4.1 9.9s0 7.3-.1 9.9c-.1 2.6-.5 4.4-1.1 5.9a12 12 0 0 1-2.8 4.3 12 12 0 0 1-4.3 2.8c-1.5.6-3.3 1-5.9 1.1-2.6.1-3.4.1-9.9.1s-7.3 0-9.9-.1c-2.6-.1-4.4-.5-5.9-1.1a12 12 0 0 1-4.3-2.8 12 12 0 0 1-2.8-4.3c-.6-1.5-1-3.3-1.1-5.9C8 39.3 8 38.5 8 32s0-7.3.1-9.9c.1-2.6.5-4.4 1.1-5.9a12 12 0 0 1 2.8-4.3 12 12 0 0 1 4.3-2.8c1.5-.6 3.3-1 5.9-1.1C24.7 8 25.5 8 32 8zm0 5.8c-6.4 0-7.1 0-9.6.1-2.3.1-3.5.5-4.3.8-1.1.4-1.9.9-2.7 1.7-.8.8-1.3 1.6-1.7 2.7-.3.8-.7 2-.8 4.3-.1 2.5-.1 3.2-.1 9.6s0 7.1.1 9.6c.1 2.3.5 3.5.8 4.3.4 1.1.9 1.9 1.7 2.7.8.8 1.6 1.3 2.7 1.7.8.3 2 .7 4.3.8 2.5.1 3.2.1 9.6.1s7.1 0 9.6-.1c2.3-.1 3.5-.5 4.3-.8 1.1-.4 1.9-.9 2.7-1.7.8-.8 1.3-1.6 1.7-2.7.3-.8.7-2 .8-4.3.1-2.5.1-3.2.1-9.6s0-7.1-.1-9.6c-.1-2.3-.5-3.5-.8-4.3-.4-1.1-.9-1.9-1.7-2.7-.8-.8-1.6-1.3-2.7-1.7-.8-.3-2-.7-4.3-.8-2.5-.1-3.2-.1-9.6-.1zm0 8.1A10.1 10.1 0 1 1 32 42a10.1 10.1 0 0 1 0-20.2zm0 14.6a4.5 4.5 0 1 0 0-9.1 4.5 4.5 0 0 0 0 9.1zm10.8-15.2a2.4 2.4 0 1 1 4.7 0 2.4 2.4 0 0 1-4.7 0z"/>
</svg>
